<?xml version="1.0" standalone="no"?>
<!DOCTYPE svg PUBLIC "-//W3C//DTD SVG 20010904//EN"
 "http://www.w3.org/TR/2001/REC-SVG-20010904/DTD/svg10.dtd">
<svg version="1.0" xmlns="http://www.w3.org/2000/svg"
 width="640.000000pt" height="1280.000000pt" viewBox="0 0 640.000000 1280.000000"
 preserveAspectRatio="xMidYMid meet">
<g transform="translate(0.000000,1280.000000) scale(0.100000,-0.100000)"
fill="#000000" stroke="none">
<path d="M2910 12777 c0 -4 12 -20 26 -35 14 -15 40 -56 58 -92 29 -61 31 -72
31 -175 0 -67 -6 -128 -15 -155 -11 -35 -15 -40 -18 -23 -2 12 -20 36 -41 53
-32 24 -41 27 -50 16 -8 -10 -6 -17 10 -32 12 -10 32 -38 46 -62 l26 -43 -29
-72 c-32 -78 -113 -228 -206 -379 l-59 -97 -102 66 c-389 251 -745 444 -1028
556 -147 58 -177 66 -110 28 100 -57 197 -148 271 -256 16 -24 27 -50 24 -58
-3 -8 2 -17 10 -20 38 -15 119 -234 164 -443 39 -179 53 -269 102 -664 63
-514 89 -649 176 -912 56 -168 102 -241 241 -384 217 -222 330 -278 570 -279
72 0 134 -3 137 -6 3 -3 5 -682 4 -1509 l-3 -1503 -273 502 -274 501 -76 66
c-243 208 -542 334 -1029 433 -57 12 -263 48 -459 82 -197 33 -398 69 -448 79
-50 10 -91 18 -92 17 -1 -1 151 -211 337 -467 209 -286 359 -483 391 -512 106
-96 273 -197 463 -281 158 -70 337 -129 769 -252 395 -112 570 -166 654 -200
l42 -17 0 -354 0 -354 -1576 0 -1576 0 5 -22 c6 -23 98 -464 220 -1058 l64
-305 127 -6 c70 -4 131 -10 136 -15 12 -13 1019 -3355 1185 -3935 l48 -167
171 -6 c300 -10 2889 -27 2896 -19 4 5 150 600 325 1323 533 2208 665 2752
671 2762 4 7 47 8 119 3 62 -4 115 -3 118 2 4 8 37 153 228 1033 43 201 81
375 84 388 l5 22 -1540 0 -1540 0 0 734 0 734 183 60 c100 33 250 79 332 102
570 160 720 206 895 275 126 50 327 152 420 214 161 108 170 118 544 631 194
267 353 486 352 487 0 1 -43 -7 -94 -18 -51 -11 -278 -51 -505 -89 -471 -81
-662 -122 -867 -190 -263 -86 -473 -202 -626 -344 -70 -64 -74 -71 -339 -558
-148 -271 -274 -502 -282 -513 -11 -16 -13 168 -13 1108 l0 1127 23 4 c113 22
150 32 204 56 91 41 147 82 256 189 157 152 232 257 302 422 91 211 142 457
215 1046 55 441 86 639 127 803 97 397 260 648 509 781 158 85 -148 -33 -393
-151 -294 -142 -573 -302 -884 -505 l-156 -102 -86 171 c-95 190 -212 390
-302 516 -58 81 -224 263 -225 247z"/>
</g>
</svg>
