<?xml version="1.0" ?><!DOCTYPE svg  PUBLIC '-//W3C//DTD SVG 1.1//EN'  'http://www.w3.org/Graphics/SVG/1.1/DTD/svg11.dtd'><svg height="512" width="512"  style="shape-rendering:geometricPrecision; text-rendering:geometricPrecision; image-rendering:optimizeQuality; fill-rule:evenodd; clip-rule:evenodd" version="1.1" viewBox="0 0 512 512"  xml:space="preserve" xmlns="http://www.w3.org/2000/svg" xmlns:xlink="http://www.w3.org/1999/xlink"><defs><style type="text/css">
   <![CDATA[
    .str0 {stroke:black;stroke-width:31.9998;stroke-linecap:round;stroke-linejoin:round}
    .str1 {stroke:black;stroke-width:31.9998;stroke-linecap:round;stroke-linejoin:round}
    .fil0 {fill:none}
   ]]>
  </style></defs><g id="Layer_x0020_1"><g id="_14167459648"><path class="fil0 str0" d="M62 393c-28,-26 -46,-63 -46,-105 0,-80 64,-144 144,-144 52,0 98,28 124,70 11,-4 23,-6 36,-6 62,0 112,50 112,112 0,44 -25,82 -62,100"/><line class="fil0 str0" x1="80" x2="144" y1="496" y2="352"/><line class="fil0 str0" x1="176" x2="240" y1="496" y2="352"/><line class="fil0 str0" x1="272" x2="336" y1="496" y2="352"/><path class="fil0 str1" d="M416 263c47,-19 80,-65 80,-119 0,-9 -1,-18 -3,-27 0,1 0,2 -1,3l0 0c-1,3 -2,5 -3,8 -1,2 -2,5 -3,7l0 0 -1 1 0 1 -1 1c-1,2 -2,3 -3,5l-1 0 0 1 -1 1 0 1 -1 0 0 1 -1 1c-1,1 -2,2 -2,2l-1 1 -1 1 0 0 -1 1 -1 1c0,0 -1,1 -1,1l-1 1 0 0 -1 1 -1 0 -1 1 0 0 -1 1 0 1 -1 0c-1,1 -1,1 -2,1l-1 1 0 0 -1 1 0 0 -1 1 -1 0 -1 1 -1 0 0 1 -2 0 -1 1 0 0 -1 0 -1 1 -1 0 -1 1 0 0 -1 0 -1 1 -2 0 -1 1 -1 0 -1 1 -1 0 -1 0 0 0 -2 1 0 0c-1,0 -1,0 -2,0l-2 1 0 0 -2 0 0 0 -1 1 -1 0 -1 0 -1 0 -1 0 -1 0 0 0 -2 1 0 0 -2 0 0 0 -1 0 -1 0 -2 0 0 0c-1,0 -1,0 -2,0 -44,0 -80,-36 -80,-80 0,-1 0,-1 0,-2l0 0 0 -2 0 -1 0 -1 0 0 0 -2 0 0 1 -2 0 0 0 -1 0 -1 0 -1 0 -1 0 -1 1 -1 0 0 0 -2 0 0 1 -2c0,-1 0,-1 0,-2l0 0 1 -2 0 0 0 -1 0 -1 1 -1 0 -1 1 -1c0,-1 0,-1 0,-2l1 -1 0 -1 0 0 1 -1 0 -1 1 -1 0 -1 0 0 1 -1c0,-1 0,-1 0,-2l1 0 0 -1 1 -1 0 -1 1 -1 0 0 1 -1 0 0 1 -1c0,-1 0,-1 1,-2l0 -1 1 0 1 -1 0 0 1 -1 0 -1 1 -1 0 0 1 -1 1 -1 1 -1 1 -1 0 0 1 -1 1 -1c0,0 1,-1 2,-2l1 -1 1 0 0 -1 1 0 1 -1 1 0 0 -1c2,-1 3,-2 5,-3l1 -1 1 0 1 -1 0 0c2,-1 5,-2 7,-3 3,-1 5,-2 8,-3l0 0c1,-1 2,-1 3,-1 -9,-2 -18,-3 -27,-3 -71,0 -128,57 -128,128 0,9 1,18 3,26m119 -133c0,0 1,-1 2,-2"/></g></g></svg>