<?xml version="1.0" standalone="no"?>
<!DOCTYPE svg PUBLIC "-//W3C//DTD SVG 20010904//EN"
 "http://www.w3.org/TR/2001/REC-SVG-20010904/DTD/svg10.dtd">
<svg version="1.0" xmlns="http://www.w3.org/2000/svg"
 width="1116.000000pt" height="1280.000000pt" viewBox="0 0 1116.000000 1280.000000"
 preserveAspectRatio="xMidYMid meet">
<g transform="translate(0.000000,1280.000000) scale(0.100000,-0.100000)"
fill="#000000" stroke="none">
<path d="M7890 12769 c-108 -43 -368 -171 -433 -212 -74 -48 -150 -61 -295
-53 -170 10 -316 40 -511 106 -216 72 -358 103 -473 104 -78 1 -89 -1 -112
-23 -15 -15 -26 -35 -26 -51 0 -27 10 -42 101 -157 114 -144 244 -403 260
-523 12 -81 6 -178 -12 -213 -26 -49 -83 -107 -122 -125 -34 -16 -74 -21 -215
-26 -172 -6 -242 -20 -242 -46 0 -59 253 -154 410 -154 64 0 85 4 135 29 39
19 61 37 63 50 2 11 15 30 28 43 44 41 87 150 99 247 3 28 1 99 -4 160 -11
122 0 173 18 84 17 -87 33 -296 29 -393 l-3 -89 -44 -13 c-68 -20 -130 -89
-115 -129 4 -8 15 -15 26 -15 69 0 178 126 178 205 0 15 5 35 11 46 15 29 39
6 39 -38 0 -40 15 -73 34 -73 20 0 53 41 77 95 21 46 23 72 30 320 4 149 7
271 8 273 1 1 5 2 10 2 26 0 65 -283 58 -425 -10 -224 -115 -450 -247 -530
-59 -36 -70 -50 -70 -90 0 -26 14 -40 52 -49 48 -11 57 -39 68 -212 29 -425
92 -956 130 -1085 85 -285 215 -1182 250 -1719 15 -238 30 -383 42 -397 17
-21 59 -15 123 16 88 41 155 118 155 178 0 36 21 93 35 93 8 0 15 -13 17 -32
4 -42 34 -51 48 -14 16 43 50 24 50 -29 0 -16 4 -36 9 -44 15 -23 57 -4 83 36
35 58 37 213 3 463 -23 176 -36 289 -90 780 -31 279 -94 604 -134 695 -11 24
-31 51 -45 61 -26 16 -28 16 -50 -5 l-23 -22 -27 108 c-14 59 -37 136 -51 169
-23 58 -25 71 -23 230 2 191 -9 246 -50 252 -44 6 -52 92 -13 135 21 24 22
167 1 192 -20 24 -105 65 -134 65 -38 0 -56 -37 -70 -140 -20 -139 -34 -138
-48 2 -10 108 -2 259 18 306 7 18 42 69 76 112 85 108 135 192 159 269 28 91
42 246 35 378 -12 205 -47 267 -175 306 -112 34 -92 54 54 56 116 1 282 19
350 36 75 20 179 68 272 128 216 139 361 176 470 122 80 -40 228 -205 184
-205 -11 0 -79 49 -151 108 -28 23 -61 42 -72 42 -18 0 -20 -5 -15 -41 3 -23
21 -65 41 -95 43 -65 65 -137 50 -162 -13 -20 -93 -29 -121 -13 -10 5 -36 43
-56 85 -45 89 -84 120 -154 118 -58 0 -93 -24 -93 -62 0 -16 11 -64 24 -107
36 -114 46 -183 46 -307 0 -185 -44 -345 -125 -455 -14 -20 -23 -42 -20 -52 3
-9 -8 -39 -26 -67 -35 -56 -33 -82 7 -109 22 -14 28 -14 68 1 42 16 208 119
268 166 15 12 32 38 38 58 14 51 25 66 44 59 20 -8 36 -48 36 -93 0 -33 -1
-34 -41 -34 -39 0 -40 -1 -37 -32 3 -31 6 -33 43 -36 22 -2 57 2 79 8 38 11
38 12 32 50 -8 48 53 243 77 248 34 7 28 -119 -9 -189 -9 -17 -26 -89 -39
-160 -14 -75 -35 -154 -52 -191 -23 -52 -28 -77 -28 -144 0 -123 29 -143 76
-52 18 35 38 111 53 201 8 46 18 47 39 2 20 -41 39 -44 71 -10 31 34 46 96 56
231 8 117 14 139 35 130 28 -10 35 19 35 149 0 245 -19 488 -45 591 -28 106
-31 134 -12 134 14 0 72 -46 178 -139 148 -130 377 -261 503 -288 124 -26 236
-2 437 93 77 36 151 64 168 64 22 0 43 -11 69 -34 l37 -34 3 -195 c2 -151 0
-209 -13 -263 -17 -75 -52 -142 -88 -171 -42 -34 -75 -87 -140 -233 -91 -202
-102 -258 -102 -540 0 -217 1 -229 29 -330 50 -182 41 -303 -48 -686 -36 -154
-55 -215 -99 -310 -30 -66 -80 -184 -112 -264 -32 -80 -68 -165 -80 -190 -12
-25 -28 -69 -34 -99 -6 -30 -43 -147 -81 -260 -75 -224 -148 -474 -205 -700
-58 -232 -65 -242 -155 -210 -30 11 -84 27 -120 35 -88 20 -118 33 -125 53 -6
18 26 270 80 645 48 332 59 510 52 896 -8 444 -32 753 -84 1080 -46 297 -47
280 4 598 25 155 43 285 40 289 -22 21 -89 -101 -118 -215 -17 -66 -19 -111
-19 -386 0 -171 4 -444 10 -606 15 -509 20 -835 9 -745 -46 398 -65 500 -124
651 -24 60 -54 149 -67 197 -12 48 -26 87 -29 87 -4 0 -10 -37 -13 -82 -7 -81
-2 -139 28 -343 8 -55 20 -163 26 -240 10 -145 13 -411 3 -385 -3 8 -16 38
-29 65 -43 93 -65 273 -104 825 -6 85 -18 184 -27 220 -11 47 -17 157 -23 395
-9 384 -14 412 -75 389 -54 -21 -57 -153 -20 -824 31 -566 36 -624 75 -915 5
-38 15 -181 21 -317 15 -325 2 -608 -41 -863 -32 -187 -40 -340 -21 -387 6
-18 20 -30 38 -34 15 -3 38 -18 50 -32 l22 -26 90 28 c119 37 125 35 129 -34
2 -30 7 -60 13 -66 5 -6 37 -14 72 -17 70 -7 238 -55 322 -91 65 -29 74 -51
16 -41 -28 5 -42 2 -54 -10 -20 -19 -12 -44 17 -49 95 -18 100 -20 124 -63 43
-79 220 -168 407 -205 131 -26 176 -49 220 -108 58 -79 95 -180 65 -180 -5 0
-27 24 -49 53 -22 29 -59 63 -82 76 -38 22 -45 23 -102 11 -76 -14 -209 -77
-259 -122 -75 -66 -159 -245 -184 -393 -28 -161 -195 -446 -381 -648 -76 -83
-103 -123 -103 -154 0 -46 75 -37 156 18 65 44 198 192 268 297 83 125 127
220 166 360 39 142 68 219 125 331 54 109 75 127 158 135 83 9 119 1 115 -28
-3 -19 -9 -21 -64 -21 -69 0 -90 -12 -99 -57 -6 -25 1 -47 35 -112 30 -60 43
-98 47 -141 4 -55 2 -64 -26 -105 -16 -25 -142 -167 -278 -316 -283 -309 -324
-356 -382 -438 -64 -93 -54 -123 28 -81 131 66 437 357 549 521 35 51 113 143
174 205 162 165 215 258 225 397 3 39 10 72 14 72 5 0 9 -6 9 -14 0 -19 45
-61 94 -89 22 -12 105 -51 183 -86 148 -66 242 -130 194 -131 -14 0 -32 7 -42
16 -38 35 -239 41 -314 10 -38 -16 -102 -87 -111 -123 -4 -16 -18 -39 -31 -53
-44 -44 -125 -228 -154 -350 -14 -58 -136 -184 -189 -195 -51 -10 -131 -66
-227 -158 -101 -97 -140 -156 -123 -186 14 -27 47 -35 145 -34 66 0 94 6 160
31 98 38 238 120 346 202 44 33 92 63 107 66 59 13 111 38 202 99 148 99 223
183 312 350 l37 70 1 -100 c0 -124 10 -145 71 -162 50 -14 103 -60 146 -124
36 -54 21 -67 -41 -34 -63 34 -88 32 -182 -14 -178 -86 -604 -433 -604 -491 0
-16 7 -20 33 -20 103 0 293 101 452 239 110 96 199 131 256 101 26 -15 49 -62
49 -105 0 -184 -137 -274 -505 -330 -73 -11 -169 -36 -285 -76 -96 -32 -263
-79 -370 -104 -107 -25 -205 -52 -217 -60 -30 -20 -30 -59 -1 -79 29 -21 123
-21 293 -1 178 21 353 58 417 88 73 35 113 44 282 67 163 22 180 25 250 47 58
19 64 15 110 -78 17 -35 36 -65 43 -67 25 -7 46 50 60 161 15 124 36 209 60
246 9 14 28 58 42 99 27 79 54 109 72 82 14 -22 3 -80 -35 -178 -43 -110 -58
-185 -60 -288 -1 -69 3 -87 25 -130 38 -69 65 -162 52 -175 -12 -12 -45 1 -83
31 -14 11 -61 29 -104 40 -68 17 -89 19 -140 9 -65 -11 -294 -83 -337 -105
-40 -20 -126 -31 -450 -59 -341 -29 -441 -42 -466 -60 -17 -13 -17 -15 7 -40
43 -46 78 -58 186 -63 230 -10 645 47 846 117 173 61 290 63 316 6 7 -14 12
-60 12 -101 0 -72 -1 -75 -27 -85 -64 -24 -614 -51 -1112 -54 -297 -1 -336 -3
-345 -18 -25 -39 110 -120 226 -136 83 -12 1190 14 1262 29 115 23 156 69 156
170 0 73 8 100 30 100 21 0 90 -73 90 -96 0 -9 -16 -47 -36 -85 -36 -69 -92
-129 -119 -129 -33 0 -52 -103 -35 -190 9 -48 16 -61 60 -98 47 -41 50 -47 50
-90 -1 -104 -58 -284 -95 -298 -33 -13 -34 12 -3 75 30 62 31 66 20 120 -16
77 -60 160 -102 193 -68 54 -141 61 -527 54 l-342 -7 -178 37 c-98 20 -243 58
-323 84 -292 98 -478 107 -385 20 30 -28 296 -121 425 -149 47 -10 128 -32
180 -49 249 -80 346 -92 656 -84 233 5 294 -3 345 -45 25 -22 29 -31 29 -79 0
-41 -5 -59 -20 -74 -52 -52 -122 -52 -328 -1 -210 53 -279 66 -489 96 -300 43
-410 74 -678 194 -176 79 -184 82 -269 135 -86 52 -160 46 -192 -16 -13 -25
-13 -29 5 -47 11 -11 66 -34 123 -52 62 -20 191 -78 323 -145 251 -128 299
-146 520 -202 193 -49 342 -78 452 -87 57 -5 90 -13 106 -25 13 -10 49 -23 81
-29 51 -9 93 -29 155 -70 12 -8 7 -18 -28 -56 -77 -84 -131 -219 -147 -368 -3
-37 -11 -60 -20 -64 -19 -7 -146 54 -227 109 -42 30 -121 66 -233 107 -288
108 -383 162 -621 353 -193 155 -304 232 -425 294 -62 31 -126 68 -141 80 -52
44 -103 23 -79 -31 16 -34 158 -144 236 -183 82 -41 120 -73 152 -129 16 -27
47 -57 78 -77 28 -18 103 -70 166 -115 160 -116 293 -193 562 -325 128 -63
267 -135 309 -160 87 -51 146 -113 155 -163 5 -29 2 -39 -21 -63 -39 -41 -104
-64 -152 -55 -79 15 -176 78 -353 230 -199 172 -305 248 -535 383 -97 57 -186
131 -378 313 -209 199 -288 254 -303 214 -10 -24 16 -69 93 -165 92 -115 345
-367 413 -411 118 -77 269 -168 350 -210 75 -38 104 -63 246 -206 166 -166
212 -203 253 -203 14 0 37 -14 57 -35 42 -45 100 -71 191 -86 97 -16 138 -7
181 42 46 51 62 51 62 -1 0 -27 5 -42 18 -49 24 -13 11 -17 -123 -31 -202 -22
-275 -49 -379 -139 -65 -56 -84 -65 -102 -50 -25 21 -12 52 31 74 47 24 145
117 145 138 0 8 -7 20 -15 27 -51 43 -197 -107 -221 -228 -6 -29 -4 -33 25
-43 l31 -11 0 -105 c0 -90 3 -111 21 -140 18 -29 20 -46 17 -124 -3 -91 -3
-91 -39 -123 -20 -17 -48 -49 -62 -71 -35 -57 -43 -62 -127 -70 -41 -4 -93
-15 -115 -25 -30 -14 -83 -21 -200 -28 -134 -7 -167 -12 -203 -31 -54 -27
-147 -41 -140 -21 2 8 67 43 143 79 l138 64 136 1 c125 1 141 3 191 27 31 14
72 40 92 57 95 84 115 293 38 400 -16 22 -43 65 -60 96 -17 30 -57 78 -88 107
-58 53 -232 171 -374 252 -97 56 -131 86 -215 188 -33 41 -100 117 -149 169
-48 52 -117 140 -153 195 -83 126 -190 336 -225 443 -18 54 -36 89 -53 102
-30 23 -81 27 -89 5 -8 -20 24 -203 52 -303 41 -142 69 -196 175 -344 113
-156 174 -228 194 -228 22 0 62 -56 116 -161 38 -75 71 -121 134 -188 46 -49
103 -120 128 -158 75 -113 245 -263 299 -263 22 0 24 42 4 91 -41 102 -22 106
63 13 75 -82 104 -141 109 -219 5 -69 2 -73 -73 -100 -78 -28 -113 -24 -211
24 -123 61 -185 127 -340 362 -138 210 -207 305 -325 444 -121 143 -203 261
-281 399 -83 148 -132 206 -171 206 -38 0 -61 -38 -52 -89 9 -57 65 -168 119
-237 25 -32 67 -87 93 -121 27 -34 91 -115 144 -180 52 -65 154 -196 226 -291
117 -155 144 -198 202 -321 8 -18 70 -92 138 -165 67 -72 119 -134 115 -137
-4 -3 -41 -19 -82 -34 -86 -32 -110 -46 -163 -92 -20 -18 -44 -33 -54 -33 -9
0 -33 -19 -54 -41 -21 -23 -44 -39 -51 -36 -8 2 -19 33 -27 68 -7 34 -37 128
-67 208 -60 161 -86 201 -315 497 -185 238 -216 290 -302 499 -52 128 -83 226
-122 383 -23 95 -32 115 -51 124 -18 8 -27 8 -40 -3 -14 -11 -16 -26 -11 -84
10 -110 131 -580 182 -705 71 -174 207 -439 285 -555 40 -59 79 -124 87 -143
8 -20 29 -56 45 -81 41 -59 58 -119 58 -206 0 -102 -16 -120 -102 -120 -83 1
-167 34 -222 89 -38 37 -46 52 -70 146 -33 123 -82 263 -199 565 -144 372
-173 556 -186 1176 -8 422 -6 414 -97 407 -32 -3 -62 -12 -71 -21 -35 -34 -27
-245 28 -777 31 -307 56 -440 106 -563 40 -101 73 -199 73 -220 0 -11 22 -69
50 -128 89 -194 190 -498 190 -571 0 -18 -12 -57 -27 -86 -17 -34 -23 -56 -17
-62 6 -6 59 -19 120 -30 185 -33 384 -100 384 -129 0 -26 -71 -21 -125 8 -25
13 -67 16 -260 16 -218 -1 -232 -2 -270 -23 -21 -12 -49 -22 -62 -22 -13 0
-29 -11 -39 -25 -19 -29 -34 -32 -34 -7 0 26 75 95 145 134 49 28 61 39 63 63
5 36 -19 55 -68 55 -45 0 -107 -39 -175 -109 -83 -86 -84 -83 -59 159 25 242
6 415 -66 610 -68 187 -91 257 -114 364 -61 271 -80 523 -52 691 21 126 36
347 36 532 0 166 -22 146 175 163 219 19 416 66 584 139 246 105 397 240 535
474 205 349 250 634 157 999 -56 218 -149 388 -280 510 -39 36 -71 69 -71 74
0 5 10 14 23 19 12 6 38 35 58 65 54 80 194 355 299 585 50 110 129 279 175
375 46 96 93 206 105 245 42 140 37 263 -16 369 -51 101 -67 108 -227 94 -123
-10 -164 -31 -237 -121 -118 -144 -147 -258 -159 -627 -11 -318 -20 -359 -113
-540 -38 -74 -73 -139 -79 -145 -19 -19 -42 23 -51 91 -4 37 -24 115 -44 173
-37 105 -37 108 -42 296 -3 139 0 223 12 312 35 265 13 395 -79 483 -21 19
-48 52 -61 72 -19 29 -35 40 -76 53 -28 8 -70 15 -91 15 l-40 0 19 21 c30 34
90 55 226 80 141 25 156 24 295 -35 89 -38 167 -52 200 -37 23 11 25 16 20 57
-6 58 -26 76 -102 97 -33 9 -76 23 -97 31 l-36 16 -4 392 c-3 369 -4 395 -23
433 -20 41 -67 76 -82 61 -4 -4 -10 -173 -13 -374 -7 -474 -3 -462 -174 -462
-119 0 -181 -15 -261 -62 -38 -22 -97 -56 -130 -75 -33 -18 -71 -46 -85 -62
-16 -18 -39 -30 -64 -34 -22 -4 -78 -25 -124 -47 -46 -22 -92 -40 -101 -40
-53 0 -72 85 -96 428 -9 122 -20 248 -25 279 -10 62 -2 85 23 64 19 -15 34
-74 52 -203 14 -106 55 -251 81 -285 11 -16 12 -13 8 22 -2 22 -13 132 -24
245 -11 113 -30 273 -41 355 -24 173 -123 574 -174 708 -40 102 -43 144 -15
180 25 32 25 35 -3 30 -42 -8 -97 80 -97 155 0 29 -11 51 -47 89 -15 17 -73
108 -128 203 -123 213 -285 466 -346 540 -50 62 -131 213 -148 277 -8 28 -32
66 -70 109 -32 36 -83 104 -112 150 -134 213 -272 415 -313 461 -25 28 -50 63
-57 79 -6 16 -15 117 -20 224 -4 107 -14 232 -20 278 -6 46 -9 86 -5 89 8 9
58 -105 95 -217 51 -155 84 -192 116 -130 33 64 10 248 -49 399 -74 186 -173
298 -254 289 -43 -5 -40 -39 13 -150 26 -54 45 -101 42 -105 -13 -13 -38 9
-90 79 -73 99 -85 108 -156 118 -47 6 -73 17 -109 44 -26 20 -64 45 -84 56
-43 23 -46 32 -18 60 31 31 63 33 162 12 51 -11 122 -24 158 -28 36 -3 101
-21 145 -38 77 -30 86 -31 225 -31 171 0 238 15 338 74 37 22 97 49 134 60
116 35 147 69 128 142 -18 66 -74 76 -175 33 -246 -107 -364 -144 -454 -144
-32 0 -105 15 -184 39 -180 53 -260 65 -407 65 -139 -1 -229 -18 -312 -60 -77
-39 -98 -57 -177 -153 -208 -254 -415 -350 -753 -351 -164 -1 -267 -17 -338
-54 -210 -109 -197 -99 -259 -193 -31 -48 -83 -124 -115 -168 -31 -44 -71
-108 -87 -143 -55 -114 -186 -231 -331 -295 -96 -42 -180 -66 -363 -102 -233
-46 -278 -67 -399 -190 -172 -173 -220 -302 -246 -668 -6 -81 -16 -160 -21
-175 -18 -47 -50 -72 -123 -93 -163 -47 -246 -98 -367 -227 -80 -85 -126 -155
-168 -254 -24 -59 -26 -73 -26 -213 0 -165 12 -244 57 -372 39 -115 37 -163
-9 -254 -55 -106 -132 -184 -244 -246 -52 -29 -113 -71 -136 -95 -23 -24 -84
-109 -136 -190 l-95 -147 4 -183 c7 -263 20 -406 42 -453 11 -22 41 -127 67
-232 l47 -193 -84 -88 c-137 -144 -194 -244 -224 -393 -31 -152 -4 -320 76
-479 22 -44 81 -142 132 -217 216 -326 221 -385 83 -912 -77 -293 -99 -418
-93 -515 5 -64 11 -82 68 -184 72 -131 134 -211 284 -372 128 -136 184 -207
218 -275 43 -86 49 -135 46 -366 l-3 -214 42 -88 c62 -128 134 -226 238 -325
111 -105 165 -138 332 -206 252 -103 407 -200 484 -301 22 -29 65 -111 95
-181 131 -304 161 -339 434 -495 234 -135 297 -166 362 -180 60 -13 300 -130
398 -194 81 -53 123 -97 175 -182 24 -40 53 -74 72 -84 18 -10 59 -45 91 -77
71 -71 174 -125 277 -147 91 -19 323 -19 440 0 50 8 153 30 230 50 188 49 259
54 318 26 25 -12 98 -67 163 -123 135 -115 273 -209 354 -239 70 -27 187 -49
253 -49 126 1 269 54 457 170 138 85 182 103 260 103 80 1 131 -20 237 -98 96
-70 128 -78 283 -73 196 7 236 29 455 256 l150 154 105 -47 c292 -131 336
-145 478 -145 263 0 480 119 625 345 71 111 88 121 222 135 63 7 134 7 207 0
179 -15 296 10 418 92 98 65 175 190 238 389 41 128 49 208 28 278 -24 81 -21
160 7 202 32 49 82 69 194 80 201 19 363 87 459 193 93 102 148 239 161 396 7
89 -6 156 -47 257 -67 161 -26 218 205 279 55 14 122 38 148 52 64 34 120 97
141 158 10 27 29 72 43 100 23 46 25 59 21 135 -4 71 -10 95 -40 155 -20 38
-44 95 -53 126 -9 31 -29 74 -44 96 -37 50 -61 97 -61 117 0 27 51 93 169 220
l111 119 0 126 c0 277 -43 385 -219 555 l-89 87 64 133 c110 227 128 359 69
481 -37 76 -110 146 -248 238 -117 78 -179 136 -199 184 -5 15 -14 63 -19 107
-8 62 -19 100 -53 170 -76 157 -160 226 -316 265 -47 12 -114 29 -149 37 -79
20 -133 67 -151 133 -67 249 -96 292 -243 360 -34 16 -118 45 -187 63 -84 24
-128 40 -136 53 -21 33 27 264 82 392 113 265 274 655 301 732 17 47 38 108
48 135 51 142 100 302 155 504 181 660 294 995 455 1341 97 209 117 270 122
370 4 97 -14 158 -103 350 l-49 105 0 300 0 300 -32 61 c-87 166 -247 321
-429 412 l-61 31 -164 -60 c-90 -34 -189 -70 -219 -81 -32 -12 -92 -22 -145
-25 -75 -4 -100 -2 -148 15 -108 38 -369 210 -683 448 -182 138 -356 234 -424
233 -14 0 -59 -13 -100 -30z m-1574 -238 c33 -20 60 -71 50 -96 -3 -8 -16 -15
-29 -15 -28 0 -113 54 -128 82 -24 45 48 65 107 29z m227 -54 c18 -8 47 -26
65 -41 26 -22 32 -35 32 -65 0 -41 -17 -101 -29 -101 -4 0 -12 15 -19 33 -6
18 -39 64 -72 103 -32 38 -59 72 -60 77 0 12 48 8 83 -6z m259 -143 c6 -12 7
-35 3 -51 l-7 -28 -46 49 c-41 44 -44 50 -27 56 30 11 66 -1 77 -26z m-2140
-99 c21 -27 79 -131 129 -230 84 -168 91 -186 101 -270 6 -49 8 -147 5 -216
-8 -164 -28 -221 -99 -281 -107 -90 -138 -125 -138 -152 0 -32 34 -48 82 -39
53 10 133 51 161 83 15 16 35 30 44 30 9 0 27 10 40 22 22 20 23 21 23 2 0
-19 -7 -32 -64 -114 -23 -32 -31 -56 -34 -102 -8 -112 28 -105 179 37 61 58
114 105 117 105 12 0 27 -14 50 -44 27 -35 28 -56 3 -56 -10 0 -29 -8 -41 -18
-21 -17 -22 -21 -11 -55 7 -21 27 -53 46 -72 28 -30 39 -35 77 -35 29 0 50 -6
58 -15 17 -21 5 -30 -38 -30 -33 0 -37 -3 -40 -28 -4 -36 33 -104 187 -340 67
-102 134 -214 150 -249 16 -35 51 -89 78 -120 58 -68 105 -147 254 -423 61
-115 138 -253 170 -306 32 -52 62 -114 67 -137 5 -22 19 -53 31 -68 21 -27 30
-94 12 -94 -18 0 -58 59 -69 102 -6 25 -25 61 -41 81 -16 21 -59 95 -95 165
-37 71 -86 152 -111 181 -24 29 -50 71 -56 94 -7 23 -32 69 -55 103 -24 33
-64 102 -89 152 -47 93 -85 135 -111 125 -25 -9 -15 -44 35 -122 26 -42 57
-94 69 -116 11 -22 38 -65 61 -94 24 -33 50 -85 66 -133 27 -86 69 -155 109
-181 14 -9 33 -39 44 -69 11 -29 46 -109 77 -178 196 -427 450 -1219 406
-1263 -15 -15 -19 -9 -30 61 -12 72 -126 407 -184 537 -21 50 -59 142 -83 205
-24 63 -52 122 -61 130 -10 8 -23 29 -28 45 -6 17 -17 30 -25 30 -12 0 -15
-14 -14 -65 0 -56 9 -85 62 -213 35 -82 73 -188 86 -235 13 -48 36 -127 50
-177 15 -49 44 -166 66 -260 22 -93 44 -185 49 -202 10 -34 -4 -48 -16 -18 -3
9 -18 22 -33 30 -23 12 -30 12 -48 -1 -11 -8 -22 -24 -24 -37 -2 -18 -10 -23
-45 -25 -40 -3 -43 -5 -49 -39 -7 -38 0 -157 11 -185 9 -24 28 -23 51 3 15 16
19 35 18 85 0 35 3 61 7 58 5 -3 27 -36 49 -74 22 -37 51 -82 65 -98 20 -24
22 -32 11 -41 -11 -10 -184 -41 -227 -41 -14 0 -17 21 -21 153 -5 135 -8 158
-31 208 -14 31 -42 110 -62 175 -52 169 -60 192 -133 354 -80 179 -145 332
-182 427 -15 40 -49 110 -76 155 -68 118 -283 444 -332 503 -23 28 -56 70 -74
95 -25 33 -52 54 -107 82 -40 20 -78 42 -82 50 -5 7 -6 27 -3 45 9 50 -22 102
-181 296 -79 98 -193 239 -252 315 -134 172 -294 358 -457 532 -81 86 -137
155 -153 189 l-27 54 22 38 c28 48 28 93 2 245 -24 137 -38 189 -81 300 l-32
81 -157 6 c-130 5 -171 11 -235 32 -43 14 -95 25 -115 25 -61 0 -153 -34 -215
-79 -91 -65 -119 -48 -42 26 111 108 324 153 475 102 60 -20 64 -20 110 -4
131 48 158 56 225 71 60 13 84 13 147 3 64 -10 80 -9 112 4 40 17 265 173 311
216 59 54 72 112 37 169 -25 40 -25 58 -2 71 37 23 74 8 114 -44z m2009 -147
c-9 -20 -10 -18 -10 17 0 31 2 36 9 23 6 -10 7 -25 1 -40z m1689 -36 c14 -51
12 -152 -3 -182 -16 -31 -43 -37 -68 -14 -26 23 -25 107 1 176 30 78 52 85 70
20z m-230 22 c0 -13 -21 -44 -30 -44 -11 0 -14 33 -3 43 8 8 33 9 33 1z
m-3120 -135 c0 -24 -4 -38 -10 -34 -17 10 -11 75 7 75 2 0 3 -18 3 -41z m2959
-61 c5 -23 5 -38 0 -38 -14 0 -29 47 -28 88 0 34 1 35 10 13 5 -14 14 -42 18
-63z m-1239 -75 c0 -39 -4 -75 -10 -78 -6 -4 -10 27 -10 87 0 64 3 88 10 78 5
-8 10 -47 10 -87z m-1666 15 c9 -35 7 -128 -3 -128 -15 0 -21 28 -21 91 0 59
12 79 24 37z m3046 -38 c0 -22 -4 -40 -10 -40 -5 0 -10 18 -10 40 0 22 5 40
10 40 6 0 10 -18 10 -40z m-150 -87 c0 -56 -9 -93 -21 -93 -10 0 -12 83 -3
118 11 38 24 24 24 -25z m-930 -65 c-1 -28 -2 -30 -11 -15 -6 10 -8 25 -5 33
9 24 16 16 16 -18z m-1923 -115 c-2 -21 -4 -6 -4 32 0 39 2 55 4 38 2 -18 2
-50 0 -70z m2783 28 c0 -14 -98 -109 -121 -116 -31 -10 -35 2 -12 33 40 54
133 112 133 83z m-4900 -123 c0 -10 -4 -18 -10 -18 -5 0 -10 15 -10 33 0 24 3
28 10 17 5 -8 10 -23 10 -32z m391 -12 c114 -53 173 -129 204 -258 19 -82 19
-201 -1 -267 -8 -30 -13 -63 -10 -75 3 -12 32 -53 65 -91 35 -40 60 -80 61
-93 0 -12 -11 -39 -25 -60 -51 -78 -54 -142 -4 -142 35 0 108 -80 278 -305
203 -268 605 -772 746 -936 72 -84 118 -149 154 -218 30 -56 64 -107 81 -120
17 -12 30 -31 30 -42 0 -11 11 -30 25 -43 25 -23 34 -66 14 -66 -5 0 -77 65
-159 145 -139 136 -180 165 -180 131 0 -16 28 -52 118 -150 35 -39 96 -120
136 -181 142 -215 354 -453 475 -533 93 -62 130 -143 69 -150 -22 -3 -47 16
-150 115 -195 187 -516 523 -553 579 -18 28 -156 170 -307 315 -150 145 -348
339 -439 430 -163 163 -226 212 -327 252 -101 40 -96 7 17 -104 49 -47 120
-108 157 -134 97 -68 144 -114 337 -335 94 -107 289 -315 433 -461 144 -147
267 -276 273 -288 14 -26 4 -27 -65 -6 -29 8 -52 11 -58 5 -16 -16 40 -93 166
-230 167 -181 198 -219 198 -243 0 -14 -75 54 -262 239 -179 176 -340 324
-503 459 -588 490 -859 736 -1063 965 -91 102 -191 219 -222 260 -32 41 -86
107 -120 145 -89 102 -99 125 -106 252 -12 216 -55 293 -234 412 -36 24 -77
55 -92 69 -34 32 -37 69 -5 81 29 11 68 -9 129 -65 58 -54 93 -69 126 -55 29
14 58 79 68 148 6 50 5 54 -25 80 -37 32 -39 54 -9 96 46 67 54 60 63 -51 10
-115 44 -180 117 -218 36 -19 42 -18 76 11 39 33 56 98 87 333 31 237 32 268
5 282 -15 8 -20 21 -20 51 0 48 14 77 43 90 36 15 129 3 188 -25z m1696 -97
c-3 -27 -12 -59 -19 -71 -12 -21 -13 -20 -16 28 -3 57 12 109 29 98 7 -4 9
-24 6 -55z m-2137 -174 c0 -13 -4 -27 -10 -30 -6 -4 -10 8 -10 30 0 22 4 34
10 30 6 -3 10 -17 10 -30z m-290 -160 c-8 -8 -62 -35 -120 -62 l-105 -47 -145
-2 -145 -3 90 15 c102 16 192 40 315 83 47 16 94 30 105 30 17 1 17 -1 5 -14z
m4454 -104 c3 -4 -1 -17 -9 -27 -11 -15 -16 -16 -26 -7 -10 10 -9 15 1 28 14
17 26 19 34 6z m-5092 -110 c50 -43 71 -51 158 -61 83 -9 144 -33 137 -53 -2
-7 -32 -13 -77 -15 -81 -3 -100 -12 -100 -48 0 -29 18 -39 92 -53 32 -5 71
-17 88 -26 34 -18 84 -82 130 -166 26 -50 30 -67 30 -136 0 -103 -20 -178 -76
-289 -47 -92 -49 -114 -13 -114 10 0 19 -6 19 -14 0 -19 -50 -49 -138 -80
-134 -48 -164 -75 -126 -117 15 -16 26 -19 63 -14 124 17 210 54 291 127 63
57 106 82 126 74 22 -9 16 -39 -16 -83 -42 -57 -48 -95 -19 -122 12 -11 27
-21 32 -21 23 0 77 -53 105 -103 18 -32 46 -64 67 -77 23 -14 44 -38 55 -64 9
-23 41 -70 70 -106 63 -79 104 -146 96 -159 -4 -5 6 -19 21 -31 22 -17 37 -21
71 -17 40 4 49 0 120 -50 102 -74 239 -189 252 -213 6 -11 27 -24 48 -29 21
-6 67 -29 102 -51 36 -22 123 -75 193 -117 71 -43 175 -113 230 -155 56 -43
127 -97 158 -120 31 -24 83 -62 115 -86 103 -75 474 -446 474 -474 0 -20 -31
-4 -88 45 -170 144 -243 204 -274 222 -18 11 -41 37 -51 58 -12 24 -26 37 -38
37 -34 0 -81 30 -149 95 -75 72 -172 139 -326 225 -138 77 -161 79 -103 9 47
-57 89 -86 133 -96 18 -4 55 -34 99 -80 39 -40 78 -73 87 -73 20 0 65 -47 75
-77 11 -38 -15 -28 -127 47 -57 38 -153 94 -214 125 -150 76 -186 73 -125 -12
33 -46 77 -82 181 -148 108 -69 239 -209 217 -231 -3 -3 -32 15 -63 41 -95 77
-212 128 -240 104 -42 -35 -6 -70 174 -163 73 -38 171 -99 219 -135 80 -61
173 -158 173 -181 0 -19 -34 -10 -84 24 -28 18 -177 102 -331 186 -385 210
-453 252 -620 381 -44 34 -96 69 -116 78 -20 9 -50 30 -66 46 -17 17 -71 52
-121 79 -50 27 -121 73 -159 103 -137 109 -765 718 -790 767 -11 22 -14 44 -9
88 16 140 -53 239 -243 347 -120 68 -134 85 -111 141 16 38 61 76 100 85 17 4
35 15 40 25 5 10 17 94 25 187 17 190 36 305 64 386 18 52 25 86 22 115 -3 37
-99 -15 -108 -59 -8 -42 -37 -55 -63 -29 -32 32 -28 110 9 152 16 18 45 61 65
95 20 34 44 67 54 72 31 19 70 12 104 -18z m2063 -163 c55 -57 200 -208 323
-336 122 -128 274 -281 337 -339 63 -59 119 -119 124 -134 5 -15 23 -34 39
-43 35 -18 142 -132 142 -151 0 -61 -87 1 -300 214 -107 108 -247 241 -310
296 -177 155 -486 465 -497 501 -12 34 6 94 28 94 7 0 58 -46 114 -102z m2901
-169 c4 -64 4 -125 0 -135 -7 -18 -8 -18 -19 1 -8 13 -13 84 -14 205 -2 182
-2 184 12 115 8 -38 17 -122 21 -186z m174 11 c16 -31 9 -125 -10 -125 -17 0
-31 72 -23 118 6 32 18 35 33 7z m-4562 -55 c7 -14 12 -31 12 -38 -1 -17 -40
32 -40 49 0 23 16 16 28 -11z m-853 -181 c7 -92 -1 -232 -16 -255 -8 -12 -10
-12 -19 1 -19 29 -32 126 -27 190 5 65 32 150 47 150 4 0 11 -39 15 -86z
m2466 -121 c36 -38 106 -117 155 -178 49 -60 136 -162 194 -225 264 -289 479
-545 610 -725 114 -157 342 -499 390 -585 19 -34 72 -111 117 -171 96 -127 98
-130 215 -398 80 -183 91 -214 96 -280 4 -60 2 -73 -9 -69 -8 2 -66 105 -129
229 -130 253 -204 378 -431 723 -233 354 -279 420 -444 639 -82 109 -187 248
-233 310 -148 200 -298 391 -363 462 -110 120 -249 302 -249 327 0 18 19 5 81
-59z m-1674 -190 c5 -15 -55 -83 -74 -83 -20 0 -7 38 25 73 26 27 42 31 49 10z
m-973 -58 c8 -22 -5 -76 -17 -72 -6 2 -20 15 -30 30 -17 22 -18 29 -7 42 16
19 46 19 54 0z m1313 -27 c23 -25 101 -146 127 -196 14 -28 15 -32 2 -32 -45
0 -166 158 -166 216 0 40 9 42 37 12z m4477 -112 c19 -16 27 -82 19 -172 l-6
-78 -12 41 c-7 23 -23 56 -35 73 -20 28 -22 40 -17 101 7 80 16 103 29 69 5
-13 15 -28 22 -34z m-5944 -46 c26 -16 4 -21 -91 -18 -87 3 -91 4 -59 15 43
14 130 16 150 3z m1451 -26 c19 -23 -4 -61 -42 -69 -61 -14 -94 63 -37 84 27
10 64 3 79 -15z m288 -150 c23 -29 36 -63 27 -72 -8 -8 -65 47 -81 79 -26 49
14 44 54 -7z m-1623 6 c36 -14 160 -135 189 -185 34 -58 40 -112 20 -181 -37
-127 -105 -225 -163 -237 -36 -7 -119 -86 -128 -123 -14 -57 59 -68 149 -23
22 12 69 43 104 70 83 63 101 63 141 0 46 -76 83 -86 94 -26 4 26 46 33 55 9
3 -9 1 -25 -5 -35 -7 -10 -12 -24 -12 -32 0 -43 295 -331 464 -452 50 -35 114
-82 141 -104 28 -22 97 -65 155 -96 107 -58 149 -89 137 -101 -4 -4 -33 3 -64
15 -32 13 -84 33 -116 45 -32 12 -88 46 -125 75 -36 29 -108 77 -159 107 -51
30 -104 70 -118 88 -15 20 -54 47 -93 66 -76 37 -170 98 -255 164 -56 44 -99
58 -112 37 -13 -22 139 -156 213 -188 18 -7 60 -38 93 -69 70 -65 129 -103
264 -172 55 -29 129 -75 165 -102 131 -103 250 -174 475 -283 712 -346 1135
-567 1219 -638 56 -47 104 -69 152 -69 75 0 101 -16 123 -75 42 -113 44 -112
-55 -49 -107 67 -640 335 -773 388 -115 46 -151 45 -163 -1 -10 -39 -35 -43
-43 -8 -3 14 -7 36 -10 50 -7 32 -20 31 -66 0 -41 -29 -33 -31 -204 40 -223
93 -610 215 -681 215 -39 0 -51 -14 -32 -37 23 -29 344 -172 603 -268 241 -90
494 -212 793 -382 267 -151 431 -250 557 -337 60 -42 117 -76 127 -76 18 0 48
-36 48 -57 0 -7 -7 -13 -16 -13 -8 0 -111 45 -228 99 -407 190 -628 276 -931
365 -225 67 -659 210 -835 276 -197 74 -339 136 -560 247 -268 133 -453 254
-548 361 -93 102 -268 228 -351 252 -26 7 -33 5 -41 -10 -18 -35 -12 -112 14
-161 28 -51 62 -176 72 -260 5 -43 2 -65 -11 -95 -23 -49 -207 -233 -258 -257
-42 -20 -46 -31 -18 -47 40 -21 162 -5 236 32 55 28 112 84 141 140 l24 47 79
-53 c98 -67 421 -230 734 -370 287 -129 329 -145 655 -245 142 -44 325 -103
407 -131 83 -28 210 -69 284 -91 74 -22 151 -49 170 -59 46 -23 335 -131 561
-210 188 -65 317 -118 561 -232 189 -88 205 -98 196 -123 -7 -16 -16 -17 -83
-11 -42 3 -176 28 -298 55 -121 28 -320 68 -441 91 -227 42 -544 116 -840 195
-93 25 -244 59 -335 76 -91 17 -206 44 -257 60 -50 15 -192 46 -315 69 -123
22 -254 47 -293 55 -91 19 -169 19 -185 0 -41 -49 33 -85 276 -134 104 -21
297 -67 429 -101 805 -207 995 -252 1395 -335 124 -25 344 -64 490 -86 288
-43 306 -47 275 -59 -30 -13 -193 -12 -346 2 -180 16 -240 -1 -190 -51 76 -76
691 -126 733 -59 12 20 -14 50 -71 83 -28 16 -51 33 -51 37 0 16 164 9 200
-10 34 -17 35 -19 33 -72 -1 -30 -6 -67 -12 -82 l-11 -28 -227 0 c-325 1 -554
14 -584 33 -13 8 -73 25 -132 36 -60 12 -211 47 -335 77 -534 129 -762 166
-1297 209 -237 19 -771 31 -805 18 l-24 -10 23 -12 c12 -7 64 -17 115 -21 270
-26 59 -49 -302 -33 l-151 6 -5 76 c-23 294 -55 366 -231 521 -82 73 -131 100
-179 100 -40 0 -56 -20 -56 -70 0 -48 28 -86 108 -146 133 -101 164 -177 103
-260 -34 -47 -52 -62 -111 -97 -25 -14 -79 -56 -120 -92 -102 -90 -134 -105
-241 -105 -145 0 -217 38 -268 143 -42 85 -61 177 -67 337 l-6 135 42 69 c23
38 51 88 61 112 11 23 32 52 47 64 113 86 180 130 200 130 12 0 62 -20 110
-44 118 -59 142 -64 178 -32 29 24 29 26 33 149 2 73 -1 133 -7 144 -6 10 -32
29 -59 43 -44 23 -52 34 -99 125 -28 55 -62 120 -75 145 -22 42 -24 59 -30
240 -3 107 -9 204 -14 215 -5 11 -22 35 -38 54 -24 28 -28 41 -24 71 9 67 28
95 67 98 36 4 80 35 80 58 0 12 -69 44 -96 44 -56 0 75 103 166 131 69 21 101
22 254 7 37 -4 61 34 80 124 l13 63 184 0 c180 0 185 1 235 27 71 37 151 103
169 139 15 28 15 33 0 56 -15 22 -22 25 -57 20 -22 -3 -65 -21 -96 -40 -66
-40 -119 -57 -183 -57 -58 0 -70 12 -62 66 8 61 -2 89 -37 104 -55 23 -240
223 -240 259 0 6 15 28 33 48 48 55 70 88 116 180 49 97 51 118 14 128 -16 4
-34 11 -40 17 -18 15 -16 53 3 69 32 27 256 33 320 9z m374 -162 c0 -10 -4
-18 -10 -18 -5 0 -10 15 -10 33 0 24 3 28 10 17 5 -8 10 -23 10 -32z m5530 0
c0 -10 -4 -18 -10 -18 -5 0 -10 15 -10 33 0 24 3 28 10 17 5 -8 10 -23 10 -32z
m-1080 -404 c0 -36 -17 -54 -31 -33 -5 8 -9 34 -9 58 0 43 0 44 20 26 12 -11
20 -31 20 -51z m-2641 -8 c9 -10 9 -16 1 -21 -16 -10 -40 2 -40 20 0 19 24 20
39 1z m3815 -331 c33 -373 40 -509 29 -530 -7 -12 -12 24 -16 118 -6 142 -18
187 -69 250 -20 24 -21 31 -10 61 14 39 31 201 33 326 2 116 5 97 33 -225z
m-1127 213 c-2 -13 -4 -5 -4 17 -1 22 1 32 4 23 2 -10 2 -28 0 -40z m53 -150
c-7 -19 -9 -15 -9 22 0 37 2 41 9 23 6 -14 6 -32 0 -45z m-4289 41 c27 -14 14
-29 -26 -29 -37 0 -56 17 -34 31 19 12 36 11 60 -2z m2933 -62 c25 -33 36 -97
17 -97 -26 0 -61 60 -61 106 0 33 14 30 44 -9z m-2806 -71 c41 -21 68 -54 55
-67 -14 -14 -44 2 -72 37 -34 43 -28 53 17 30z m-1188 -44 c13 -11 20 -24 16
-30 -11 -18 -65 -44 -76 -37 -11 7 -14 68 -3 78 12 13 40 7 63 -11z m1511
-115 c43 -29 68 -72 52 -88 -9 -9 -18 -8 -38 5 -38 25 -105 87 -105 97 0 17
58 9 91 -14z m2643 8 c6 -18 -2 -45 -15 -45 -16 0 -29 36 -17 48 16 16 25 15
32 -3z m81 -97 c19 -23 23 -34 14 -37 -13 -4 -59 42 -59 60 0 18 19 9 45 -23z
m1348 -37 c2 -10 1 -25 -4 -32 -6 -10 -9 -4 -9 19 0 36 5 42 13 13z m-3823
-50 c59 -23 160 -93 215 -151 36 -38 37 -42 15 -35 -41 12 -197 97 -248 135
-44 34 -66 70 -43 70 6 0 33 -9 61 -19z m4411 -217 c-8 -33 -9 -26 -9 46 0 78
1 81 9 39 5 -28 5 -63 0 -85z m-2958 6 c14 -11 42 -27 61 -35 41 -17 48 -48
16 -65 -15 -8 -23 -6 -40 12 -11 12 -20 25 -20 30 0 4 -18 12 -39 18 -38 10
-57 32 -45 51 9 15 40 10 67 -11z m176 -201 c66 -55 74 -69 38 -69 -24 0 -69
42 -100 93 -26 40 -6 33 62 -24z m1121 -6 c18 -20 44 -62 58 -93 14 -30 40
-76 58 -101 64 -88 35 -95 -46 -11 -81 83 -122 147 -128 198 -6 56 13 59 58 7z
m-307 -73 c77 -75 92 -107 59 -118 -18 -6 -110 91 -129 136 -8 20 -24 43 -34
50 -10 7 -19 18 -19 23 0 19 45 -15 123 -91z m166 71 c13 -13 17 -27 14 -41
-6 -21 -7 -21 -36 8 -16 16 -26 35 -23 41 10 16 23 14 45 -8z m-1991 -36 c40
-19 95 -41 123 -50 61 -18 157 -69 331 -176 165 -103 246 -181 209 -203 -18
-11 -398 189 -611 322 -63 40 -130 75 -148 78 -35 7 -48 24 -38 49 9 24 57 17
134 -20z m-2031 -114 c52 -92 170 -196 295 -260 80 -41 102 -68 47 -58 -51 10
-370 172 -399 202 -21 22 -25 37 -25 84 0 100 36 114 82 32z m3204 -28 c113
-119 116 -201 4 -87 -54 55 -74 92 -60 113 10 17 19 13 56 -26z m1969 -188
c18 -22 8 -50 -19 -50 -28 0 -47 25 -38 49 8 20 40 21 57 1z m654 -24 c3 -5
-4 -31 -16 -57 -41 -93 -35 -353 13 -551 46 -194 70 -523 39 -543 -24 -15 -31
-12 -70 30 -41 45 -64 50 -81 19 -15 -28 -6 -81 33 -198 41 -126 74 -162 149
-169 64 -5 72 1 87 73 38 180 39 527 3 725 -55 302 -62 352 -68 446 l-6 100
32 36 c61 70 122 73 158 6 17 -31 18 -76 18 -683 0 -685 2 -712 46 -756 12
-12 33 -19 57 -19 22 0 61 -7 88 -15 27 -8 57 -15 66 -15 26 0 96 67 140 134
60 94 156 288 173 352 10 36 21 166 31 334 15 286 24 368 50 459 29 100 67
131 164 131 117 0 145 -38 145 -195 0 -89 -3 -104 -22 -129 -13 -16 -23 -38
-23 -50 0 -12 -23 -62 -51 -111 -59 -102 -92 -177 -147 -331 -50 -139 -116
-284 -204 -452 -39 -74 -81 -164 -94 -200 -28 -81 -22 -80 -183 -13 -182 77
-174 76 -476 76 -218 0 -289 -4 -370 -19 -122 -22 -241 -59 -317 -97 -32 -16
-64 -29 -72 -29 -19 0 -79 77 -204 260 -126 184 -144 206 -250 313 -96 97
-192 166 -265 191 -59 20 -61 20 -102 0 -86 -40 -66 -162 53 -319 25 -33 106
-124 181 -203 200 -211 230 -262 164 -278 -52 -13 -159 41 -268 136 -27 24
-79 57 -115 74 -62 29 -71 31 -190 30 -127 0 -216 -14 -258 -42 -12 -8 -25
-12 -29 -9 -3 4 12 53 35 109 22 57 46 135 52 173 36 240 33 233 124 259 47
14 58 22 70 49 7 17 45 70 84 117 39 47 88 118 107 158 33 66 43 78 103 116
37 24 101 60 142 82 73 38 144 101 250 221 59 67 98 78 360 98 318 25 433 55
565 148 49 35 88 46 99 28z m-5354 -121 c0 -5 -14 -10 -31 -10 -17 0 -28 4
-24 10 3 6 17 10 31 10 13 0 24 -4 24 -10z m125 -50 c4 -6 -7 -10 -25 -10 -18
0 -29 4 -25 10 3 6 15 10 25 10 10 0 22 -4 25 -10z m1722 -46 c45 -27 135 -78
199 -114 64 -35 165 -97 224 -136 59 -40 127 -82 151 -94 23 -12 70 -43 104
-69 34 -26 91 -64 128 -85 72 -40 83 -56 38 -56 -35 0 -105 36 -195 102 -38
28 -92 62 -120 76 -28 14 -107 60 -176 102 -176 108 -215 130 -233 130 -21 0
-193 116 -212 143 -8 12 -39 30 -68 39 l-52 18 65 -4 c56 -3 76 -11 147 -52z
m622 30 c13 -29 6 -67 -12 -61 -14 4 -22 87 -9 87 5 0 14 -12 21 -26z m1591
-54 c42 -42 15 -90 -63 -116 -28 -9 -106 -43 -171 -75 -74 -37 -132 -59 -153
-59 -30 0 -36 5 -53 43 -32 69 -30 72 53 72 67 0 76 3 137 41 36 23 88 49 115
59 28 10 59 26 70 37 25 23 40 23 65 -2z m-3461 -119 c252 -101 524 -197 711
-251 216 -62 445 -140 630 -215 91 -37 235 -91 320 -120 86 -30 194 -72 240
-94 46 -23 94 -41 107 -41 13 0 28 -9 35 -20 7 -12 37 -37 66 -58 30 -20 49
-38 43 -40 -6 -2 -55 16 -109 41 -53 25 -110 48 -127 52 -16 3 -79 26 -140 50
-61 24 -223 82 -360 129 -138 46 -295 102 -350 124 -123 49 -390 137 -477 157
-176 41 -791 295 -858 354 l-25 22 47 -5 c25 -3 136 -41 247 -85z m-2039 -95
c0 -20 -26 -40 -35 -26 -10 16 2 40 20 40 8 0 15 -6 15 -14z m4260 -81 c0 -17
-35 -55 -50 -55 -16 0 -12 37 6 54 20 20 44 21 44 1z m790 -138 c-24 -101 -88
-189 -145 -199 -17 -3 -20 3 -21 39 0 28 -13 67 -42 122 -24 45 -40 81 -36 81
3 0 28 -8 54 -17 l48 -17 69 36 c81 43 92 36 73 -45z m-783 -160 c37 -25 42
-37 14 -37 -21 0 -81 46 -81 62 0 13 26 3 67 -25z m404 -1 c24 -14 70 -34 102
-46 77 -29 74 -44 -15 -74 -62 -20 -94 -9 -114 41 -17 39 -30 103 -22 103 3 0
25 -11 49 -24z m-61 -74 c0 -11 -60 -67 -87 -81 -34 -17 -68 -13 -89 10 -19
22 -19 22 7 16 20 -5 44 2 90 28 67 36 79 40 79 27z m882 -287 c38 -49 118
-145 180 -211 120 -132 137 -154 115 -154 -22 0 -115 85 -245 224 -140 150
-177 199 -168 221 13 36 50 10 118 -80z m-818 63 c26 -41 24 -98 -3 -98 -33 0
-58 51 -47 96 8 30 31 31 50 2z m4785 -93 c32 -16 51 -59 51 -115 0 -29 -6
-41 -25 -54 -13 -9 -61 -63 -105 -120 -104 -136 -186 -210 -277 -254 -60 -28
-76 -32 -88 -22 -24 20 -18 45 23 94 66 79 192 325 192 374 0 75 150 139 229
97z m-7439 -325 c40 -5 5 -8 -122 -9 -109 0 -179 3 -183 9 -7 12 220 12 305 0z
m469 -56 c2 -2 -22 -3 -55 -3 -47 1 -53 3 -29 9 27 6 73 3 84 -6z m186 -36
c28 -5 86 -21 130 -36 44 -14 114 -33 155 -43 l75 -17 -92 -1 c-71 -1 -95 3
-107 15 -19 19 -69 34 -113 34 -39 0 -137 35 -153 55 -13 16 -4 16 105 -7z
m-1801 -7 c3 -4 -10 -16 -28 -26 -33 -18 -66 -15 -66 5 0 21 83 40 94 21z
m485 0 c11 -7 10 -11 -7 -20 -27 -14 -59 -14 -68 0 -14 23 45 39 75 20z m3848
-23 c99 -37 267 -148 249 -165 -11 -11 -81 -4 -167 17 -105 25 -134 25 -158 1
-43 -43 11 -95 142 -136 127 -41 244 -55 446 -55 l184 0 -7 -32 c-28 -130 -32
-252 -15 -419 15 -150 34 -236 71 -307 31 -62 31 -63 12 -83 -11 -10 -53 -28
-94 -40 -40 -11 -87 -28 -103 -37 -38 -23 -67 -71 -67 -113 0 -43 -30 -94 -67
-113 -35 -18 -76 -61 -97 -103 -18 -36 -37 -40 -76 -18 -34 20 -60 18 -116 -6
-27 -11 -66 -21 -88 -22 -36 -1 -44 4 -92 57 -74 81 -149 193 -191 282 -61
134 -211 600 -222 694 -11 89 -5 173 35 483 l18 139 181 -4 c133 -3 191 -8
222 -20z m-5253 -19 c27 -21 36 -59 13 -59 -16 0 -67 52 -67 68 0 18 24 14 54
-9z m1071 -78 c121 -5 240 -14 265 -20 25 -5 160 -15 300 -20 514 -21 589 -32
1121 -161 254 -62 387 -99 435 -122 l69 -33 365 0 c201 0 485 2 632 5 259 5
267 4 295 -16 20 -15 29 -31 31 -55 6 -78 24 -159 48 -218 25 -64 29 -131 8
-138 -6 -2 -23 25 -37 59 -34 79 -94 150 -150 177 -41 20 -46 20 -272 6 -126
-8 -302 -19 -390 -26 -88 -6 -268 -12 -400 -13 -199 0 -250 2 -300 17 -33 9
-84 24 -113 32 -120 32 -628 63 -773 46 -79 -9 -159 -35 -159 -52 0 -17 103
-32 330 -49 283 -21 570 -54 750 -86 61 -11 211 -18 535 -24 532 -10 569 -14
535 -55 -16 -19 -40 -19 -40 0 0 25 -46 28 -209 16 -261 -18 -691 -34 -784
-27 -99 7 -124 16 -129 48 -3 22 -8 23 -96 26 -134 4 -1155 -70 -1354 -99 -80
-12 -97 -24 -78 -59 15 -28 62 -31 427 -28 182 2 335 -1 339 -5 16 -16 -19
-24 -124 -31 -251 -16 -595 -64 -689 -97 -31 -10 -65 -19 -75 -19 -11 0 -70
48 -132 109 -66 63 -126 111 -142 115 -16 4 -58 29 -94 56 -104 77 -288 140
-416 144 -137 3 -124 -77 25 -159 80 -43 166 -127 201 -195 34 -65 31 -118
-14 -225 -21 -49 -43 -107 -49 -128 -10 -34 -9 -39 11 -53 30 -21 28 -54 -8
-100 -20 -24 -30 -47 -28 -63 5 -44 35 -38 92 17 28 28 72 60 97 70 101 43
222 261 217 392 -1 41 2 55 12 55 38 0 40 -198 2 -277 -50 -103 -237 -288
-372 -369 -110 -65 -232 -75 -365 -29 -166 57 -275 171 -415 434 -61 114 -64
96 45 321 77 158 103 199 111 178 8 -18 65 -16 92 3 12 8 31 33 42 54 16 31
29 41 70 55 28 9 71 34 96 56 25 21 57 42 71 45 31 8 53 56 53 118 0 87 -27
114 -132 136 -32 6 -58 15 -58 19 0 25 193 161 325 230 45 24 69 30 95 26 19
-2 134 -9 255 -14z m2235 -11 c11 -7 3 -10 -30 -9 -34 0 -40 2 -25 9 27 12 37
12 55 0z m1145 -180 c4 -6 -16 -10 -52 -10 -41 0 -54 3 -43 10 20 13 87 13 95
0z m3048 -107 c-13 -2 -33 -2 -45 0 -13 2 -3 4 22 4 25 0 35 -2 23 -4z m65
-269 c40 -26 25 -51 -28 -44 -25 3 -53 37 -46 55 7 18 34 14 74 -11z m-3158
-124 c0 -22 -34 -44 -56 -36 -14 6 -19 37 -7 49 3 4 19 7 35 7 21 0 28 -5 28
-20z m3360 -40 c0 -22 -25 -44 -40 -35 -14 8 -13 48 2 63 15 15 38 -2 38 -28z
m-197 -112 l42 -43 -30 -3 c-68 -8 -134 32 -119 72 12 31 61 19 107 -26z
m-5153 12 c11 -7 1 -10 -35 -9 -37 0 -45 3 -30 9 27 12 47 12 65 0z m225 -40
c55 -5 243 -14 418 -20 295 -10 473 -23 485 -34 15 -16 -106 -21 -543 -21
-533 0 -535 0 -535 54 0 37 9 44 45 36 16 -3 75 -10 130 -15z m1219 -9 c11
-17 -140 -28 -205 -14 -33 7 -33 7 -9 14 36 10 208 11 214 0z m595 -14 c-14
-7 -37 -22 -52 -34 -16 -12 -42 -25 -60 -28 -18 -4 -102 -26 -187 -51 -156
-43 -291 -75 -494 -114 -60 -12 -122 -28 -137 -36 -66 -34 -54 -83 23 -91 125
-14 410 42 821 162 70 21 131 35 134 32 14 -15 -12 -38 -95 -80 -50 -26 -119
-54 -153 -63 -35 -8 -113 -40 -174 -69 -166 -81 -255 -102 -580 -140 -247 -30
-410 -56 -555 -91 -175 -41 -476 -133 -645 -196 -197 -74 -349 -114 -487 -126
-58 -6 -116 -16 -129 -22 -12 -7 -59 -24 -103 -39 -115 -37 -363 -192 -387
-241 -4 -8 -26 -48 -49 -88 -23 -40 -59 -127 -81 -194 -43 -134 -58 -158 -101
-158 -33 0 -68 -31 -68 -62 0 -46 -9 -8 -25 107 -16 115 -63 360 -85 437 -12
42 -49 68 -97 68 -60 0 -183 81 -183 121 0 18 47 38 105 44 33 4 70 14 83 22
21 13 29 13 69 -1 63 -22 89 -20 185 10 181 57 275 121 499 340 85 83 173 161
195 172 22 11 89 27 154 37 179 25 327 61 488 118 l147 52 285 -3 c505 -5 858
28 1336 123 121 25 249 55 285 69 68 25 170 36 118 13z m299 -29 c7 -7 12 -21
12 -33 0 -12 -5 -26 -12 -33 -17 -17 -63 -15 -78 3 -11 13 -8 21 15 45 31 33
45 36 63 18z m2751 -128 c22 -11 22 -13 7 -22 -22 -12 -92 -1 -111 19 -9 8
-15 33 -15 61 l0 46 48 -46 c26 -25 58 -51 71 -58z m-6499 3 c0 -28 -4 -55
-10 -58 -6 -4 -10 21 -10 67 0 51 3 68 10 58 5 -8 10 -38 10 -67z m1260 57 c0
-10 -87 -39 -180 -60 -30 -6 -100 -25 -155 -41 -56 -15 -145 -32 -198 -37 -80
-8 -102 -13 -118 -31 -11 -11 -29 -21 -40 -21 -26 0 -90 -33 -160 -83 -32 -22
-62 -36 -68 -33 -15 10 -14 50 3 90 31 74 129 106 521 171 341 56 395 62 395
45z m5479 -16 c34 -28 41 -67 18 -98 -11 -15 -15 -15 -24 -4 -9 10 -53 115
-53 126 0 11 34 -3 59 -24z m-362 -141 c60 -106 65 -123 46 -130 -9 -4 -29 1
-45 10 -101 58 -252 -30 -279 -162 -17 -87 -17 -85 -35 -70 -9 7 -27 37 -40
66 -27 62 -41 70 -82 49 -54 -28 -70 -138 -30 -211 24 -44 37 -190 23 -242
l-8 -28 -7 30 c-4 17 -8 48 -9 71 -2 65 -30 145 -63 178 -29 29 -31 29 -44 11
-8 -10 -14 -39 -14 -64 0 -73 -27 -233 -50 -292 -46 -123 -59 -105 -35 53 26
173 25 336 -3 409 -12 31 -32 65 -45 76 -27 26 -141 62 -219 70 -75 8 -84 0
-152 -141 -29 -61 -74 -138 -99 -171 -62 -83 -240 -253 -282 -270 -96 -41
-261 12 -370 118 -53 52 -73 92 -61 123 5 14 15 15 55 10 104 -14 230 39 345
143 46 42 89 72 108 77 78 17 153 95 166 175 6 38 11 44 35 47 15 2 91 -15
169 -37 326 -92 449 -100 603 -36 33 13 70 25 82 25 50 0 133 43 214 109 46
38 85 70 86 70 1 1 19 -29 40 -66z m-2518 -4 c13 -24 13 -29 -2 -52 -9 -14
-53 -43 -99 -65 -46 -23 -124 -73 -175 -111 -321 -246 -587 -370 -918 -427
-49 -8 -113 -26 -142 -40 -28 -13 -67 -24 -86 -24 -51 0 -164 -32 -348 -97
-253 -91 -369 -168 -629 -418 -221 -214 -300 -284 -346 -311 -84 -49 -296
-135 -369 -149 -108 -20 -214 -68 -280 -126 -47 -41 -63 -50 -88 -47 -20 2
-35 11 -42 24 -19 39 -37 54 -106 90 -81 43 -125 89 -135 140 -20 108 102 400
234 562 73 89 267 207 390 236 31 8 116 17 188 20 166 7 268 33 479 119 311
127 430 157 884 222 492 71 832 144 982 210 46 20 190 90 319 156 129 66 243
119 254 117 11 -2 27 -15 35 -29z m-3899 -78 c0 -9 -6 -26 -14 -36 -13 -18
-14 -18 -20 3 -8 24 10 66 25 57 5 -4 9 -14 9 -24z m6698 -11 c43 -27 50 -47
23 -73 l-21 -21 0 27 c0 17 -10 37 -25 51 -43 40 -30 48 23 16z m-2709 -174
c23 -41 41 -83 39 -93 -2 -12 -48 -41 -128 -83 -69 -36 -186 -102 -260 -146
-332 -199 -583 -332 -858 -455 -189 -84 -334 -163 -512 -280 -75 -49 -140 -89
-145 -89 -21 0 -253 -178 -390 -300 -38 -35 -94 -78 -123 -97 -28 -18 -84 -71
-123 -116 -105 -122 -250 -316 -270 -362 -11 -24 -22 -88 -28 -162 -6 -67 -15
-133 -21 -148 -17 -44 -11 -93 15 -143 26 -48 33 -92 15 -92 -5 0 -16 15 -24
34 -8 18 -23 40 -34 47 -10 8 -23 29 -26 46 -5 19 -20 41 -36 53 -40 29 -68
71 -91 136 l-20 56 25 37 c34 49 33 63 -9 100 -40 35 -53 37 -81 16 -58 -44
-195 6 -324 121 -41 36 -88 72 -103 81 -16 8 -26 20 -24 26 7 21 66 10 109
-20 40 -27 45 -28 162 -28 l121 0 156 77 c179 88 239 135 239 187 0 57 29 99
111 161 94 72 115 98 124 153 12 71 61 149 186 290 196 224 233 241 748 352
282 60 401 93 467 130 23 12 59 26 80 30 86 16 474 211 639 321 44 29 109 76
145 104 61 47 188 130 201 130 3 0 25 -34 48 -74z m2451 -21 c0 -13 -4 -27
-10 -30 -6 -4 -10 8 -10 30 0 22 4 34 10 30 6 -3 10 -17 10 -30z m168 -17 c14
-14 16 -78 3 -78 -11 0 -51 62 -51 79 0 15 33 14 48 -1z m-1047 -366 c-13
-124 -35 -179 -87 -218 -52 -39 -60 -50 -84 -114 -24 -61 -38 -159 -76 -535
-49 -469 -43 -700 23 -955 27 -104 28 -108 27 -425 0 -314 -11 -493 -39 -664
-16 -95 -39 -146 -76 -174 -24 -17 -30 -18 -55 -6 -60 29 -86 135 -103 423
-14 226 -14 763 -1 1011 12 216 28 360 70 625 30 187 53 369 65 514 9 104 29
177 60 224 14 22 75 144 136 273 61 129 118 250 127 269 l17 35 3 -90 c2 -49
-2 -137 -7 -193z m619 33 c7 -22 20 -48 28 -58 14 -16 14 -19 2 -28 -8 -5 -26
-8 -40 -7 l-25 3 -1 155 -2 155 13 -90 c6 -50 18 -109 25 -130z m321 128 c5
-13 3 -28 -6 -39 -11 -15 -15 -16 -29 -5 -16 14 -22 52 -9 65 13 12 36 2 44
-21z m-2235 -44 c63 -40 124 -98 124 -120 0 -9 -61 -83 -136 -165 -74 -82
-160 -186 -189 -231 -87 -130 -212 -279 -428 -511 -46 -49 -121 -142 -165
-205 -89 -126 -124 -158 -269 -243 -110 -65 -221 -178 -335 -341 -196 -281
-303 -528 -330 -766 -19 -165 18 -372 83 -464 52 -74 32 -82 -78 -29 -102 49
-216 128 -303 211 -41 38 -94 85 -118 104 -55 43 -187 111 -215 111 -25 0 -67
26 -67 40 0 15 37 31 130 55 136 37 195 69 236 129 19 28 73 103 119 166 46
63 97 138 112 165 62 114 339 550 396 624 34 43 112 138 172 211 61 73 133
160 161 194 27 33 111 108 185 165 287 223 585 562 719 817 22 43 48 87 57 96
25 28 81 23 139 -13z m2074 -52 c0 -15 -5 -37 -11 -48 -16 -31 -39 -5 -39 45
0 51 18 75 37 49 7 -9 13 -30 13 -46z m-2535 -74 c-57 -87 -472 -464 -695
-631 -190 -142 -276 -219 -549 -487 -131 -129 -243 -249 -289 -310 -41 -55
-107 -135 -146 -179 -109 -121 -335 -324 -391 -351 -92 -45 -367 -74 -394 -41
-18 22 -25 137 -12 197 31 137 172 366 318 515 116 119 402 337 521 398 26 13
80 49 121 79 40 30 124 80 185 112 61 32 167 91 236 130 69 40 156 82 194 94
168 54 571 277 850 471 32 22 61 38 64 36 2 -3 -3 -18 -13 -33z m1380 -93 c11
-18 -6 -50 -26 -50 -13 0 -19 7 -19 23 0 13 3 27 7 30 10 10 31 8 38 -3z m753
-34 c2 -9 -2 -24 -9 -32 -11 -14 -13 -14 -21 1 -12 20 0 57 15 52 7 -2 13 -11
15 -21z m-1307 -86 c30 -5 126 -19 213 -30 191 -24 208 -31 218 -85 20 -101
-12 -448 -86 -940 -36 -236 -73 -930 -62 -1140 13 -244 54 -503 90 -573 8 -15
28 -39 45 -55 62 -55 43 -62 -169 -62 -169 0 -177 -1 -234 -28 -33 -15 -61
-25 -64 -22 -3 3 4 49 16 102 43 193 62 452 62 843 0 289 14 518 34 598 9 31
45 147 81 257 77 236 137 470 159 617 26 171 19 409 -12 440 -16 16 -76 12
-112 -7 -53 -27 -118 -94 -130 -133 -7 -20 -36 -89 -65 -152 -30 -64 -59 -138
-65 -165 -6 -28 -19 -61 -28 -75 -10 -14 -24 -52 -31 -85 -8 -33 -34 -111 -59
-175 -36 -91 -46 -128 -46 -177 -1 -76 11 -91 46 -63 58 45 114 160 254 514
69 178 79 197 86 171 10 -39 0 -103 -22 -140 -10 -16 -21 -61 -25 -100 -4 -38
-20 -110 -36 -160 -15 -49 -40 -133 -54 -185 -14 -52 -46 -156 -70 -230 -61
-186 -70 -229 -121 -592 -36 -261 -45 -355 -49 -516 -5 -219 -16 -298 -49
-357 -13 -22 -26 -59 -29 -83 -7 -60 -30 -82 -82 -82 -100 0 -196 55 -232 132
-48 102 -59 372 -22 551 55 276 163 555 284 736 85 128 138 276 107 295 -42
26 -228 -251 -390 -580 -89 -183 -117 -264 -132 -384 -5 -47 -14 -101 -20
-120 -5 -19 -10 -82 -10 -140 0 -167 36 -337 100 -472 17 -35 30 -69 30 -76 0
-9 -40 8 -107 44 -60 32 -143 76 -185 98 l-78 39 -172 8 c-95 4 -183 11 -195
15 -34 10 -28 31 15 57 74 47 146 144 255 342 84 153 138 290 172 435 38 166
107 382 182 565 79 198 115 264 208 385 90 118 195 278 234 356 16 33 59 102
96 153 68 94 95 145 95 179 0 11 10 32 21 47 16 20 23 45 26 98 2 40 6 82 9
95 5 25 22 27 105 12z m-497 -408 c-105 -188 -304 -487 -382 -575 -114 -128
-312 -481 -423 -755 -96 -234 -152 -349 -255 -519 -91 -149 -124 -218 -124
-256 0 -28 2 -29 43 -27 23 2 48 2 55 1 49 -5 -54 -131 -123 -150 -87 -23
-172 34 -231 155 -53 108 -44 301 22 504 36 111 135 303 206 401 87 119 320
371 453 487 61 53 160 141 222 195 112 98 200 194 373 407 112 138 194 224
198 210 2 -5 -13 -40 -34 -78z m4836 49 c0 -4 -43 -53 -95 -107 -52 -54 -102
-115 -112 -134 -16 -30 -18 -67 -20 -267 -1 -217 -3 -236 -23 -278 -23 -48
-34 -55 -44 -29 -10 26 -7 428 4 485 14 75 83 191 161 271 54 55 72 68 98 68
17 0 31 -4 31 -9z m-8987 -370 c2 -10 1 -25 -4 -32 -6 -10 -9 -4 -9 19 0 36 5
42 13 13z m155 -291 c127 -54 162 -74 149 -86 -23 -23 -249 70 -297 122 l-25
27 27 -7 c15 -3 81 -29 146 -56z m726 27 c21 -58 -26 -87 -134 -86 l-75 1 62
12 c73 15 93 29 93 66 0 14 3 30 7 34 14 14 38 0 47 -27z m-459 -157 c4 -6 -8
-10 -29 -10 -20 0 -36 5 -36 10 0 6 13 10 29 10 17 0 33 -4 36 -10z m-230
-100 c4 -6 -8 -10 -30 -10 -22 0 -34 4 -30 10 3 6 17 10 30 10 13 0 27 -4 30
-10z m7249 -341 c69 -64 78 -79 47 -79 -18 0 -131 112 -131 131 0 19 19 7 84
-52z m-5899 -349 c15 -6 9 -9 -25 -9 -34 0 -40 3 -25 9 11 5 22 9 25 9 3 0 14
-4 25 -9z m300 -130 c4 -6 -7 -10 -25 -10 -18 0 -29 4 -25 10 3 6 15 10 25 10
10 0 22 -4 25 -10z m-298 -115 c201 -45 253 -61 253 -75 0 -11 -64 -50 -81
-50 -7 0 -22 9 -34 20 -13 13 -46 23 -93 30 -118 17 -272 76 -272 105 0 21 5
20 227 -30z m6473 -185 c0 -13 -37 -50 -50 -50 -16 0 -12 18 10 40 22 22 40
26 40 10z m-1265 -390 c4 -6 -7 -10 -27 -9 -27 0 -30 2 -13 9 27 12 33 12 40
0z m-3682 -107 c-13 -2 -35 -2 -50 0 -16 2 -5 4 22 4 28 0 40 -2 28 -4z m2672
-3 c-7 -11 -138 -80 -151 -80 -12 0 39 52 71 71 32 20 91 26 80 9z m819 -40
c33 -12 35 -40 3 -40 -27 0 -70 28 -62 41 8 12 27 12 59 -1z m-3099 -80 c14
-6 -2 -9 -50 -9 -48 0 -64 3 -50 9 11 5 34 9 50 9 17 0 39 -4 50 -9z m1011
-47 c-12 -12 -199 -62 -234 -63 -18 0 -56 12 -85 28 l-52 27 170 5 c94 3 179
7 189 8 11 1 16 -1 12 -5z m859 -7 c37 -16 48 -51 20 -62 -42 -16 -148 36
-131 64 10 16 70 15 111 -2z m-1185 -336 c0 -5 -14 -10 -31 -10 -17 0 -28 4
-24 10 3 6 17 10 31 10 13 0 24 -4 24 -10z"/>
<path d="M4818 10589 c-10 -5 -18 -19 -18 -30 0 -28 62 -147 187 -359 144
-243 219 -384 401 -745 164 -324 206 -399 225 -392 8 2 12 24 11 58 -2 102
-121 372 -347 792 -63 117 -144 268 -180 337 -36 69 -84 150 -106 180 -22 30
-56 78 -75 106 -43 63 -63 74 -98 53z"/>
<path d="M5845 9330 c16 -74 147 -362 183 -402 59 -67 33 84 -42 242 -14 30
-26 69 -26 87 0 42 -56 103 -94 103 -25 0 -27 -2 -21 -30z"/>
<path d="M5737 9116 c-3 -8 3 -32 14 -53 11 -21 26 -66 34 -100 22 -96 123
-310 178 -377 32 -39 51 -27 43 26 -10 62 -74 255 -111 333 -36 77 -117 185
-139 185 -8 0 -16 -6 -19 -14z"/>
<path d="M6080 8331 c0 -11 5 -32 11 -48 9 -24 47 -196 66 -301 l6 -33 -42 3
c-28 1 -45 -3 -51 -12 -12 -20 11 -54 40 -58 21 -4 22 -7 15 -67 -7 -72 3
-100 38 -107 33 -6 67 8 67 29 0 9 -10 27 -21 40 -18 18 -20 25 -10 37 7 9 23
18 34 22 57 17 72 64 37 112 -11 16 -24 56 -29 97 -8 53 -24 97 -68 185 -36
72 -65 116 -75 118 -12 2 -18 -3 -18 -17z"/>
<path d="M3470 9778 c0 -7 4 -19 8 -26 10 -15 73 -62 84 -62 20 0 5 31 -32 64
-42 37 -60 45 -60 24z"/>
<path d="M4580 9051 c0 -33 16 -49 33 -32 7 7 7 18 -1 36 -16 34 -32 32 -32
-4z"/>
<path d="M2640 9356 c0 -22 77 -131 121 -171 45 -40 123 -80 139 -70 20 13 9
35 -25 49 -25 11 -35 21 -35 37 0 28 -92 119 -149 148 -48 25 -51 25 -51 7z"/>
<path d="M3400 8210 c0 -27 41 -62 111 -95 80 -39 98 -24 40 34 -75 75 -151
106 -151 61z"/>
<path d="M923 8165 c-63 -27 -71 -92 -13 -112 46 -16 133 -16 148 -1 31 31 7
93 -43 114 -42 17 -51 17 -92 -1z"/>
<path d="M6364 7126 c-34 -15 -78 -92 -89 -157 -10 -54 17 -144 82 -277 74
-150 130 -212 190 -212 103 0 96 78 -24 276 -69 114 -93 171 -93 217 0 44 15
57 69 57 39 0 49 -5 86 -44 55 -57 83 -139 96 -281 16 -188 96 -477 183 -660
50 -105 94 -158 128 -153 45 6 36 64 -45 294 -89 249 -106 319 -117 484 -12
171 -41 274 -96 339 -14 17 -34 31 -44 31 -10 0 -34 18 -52 39 -19 22 -46 45
-62 50 -39 15 -175 13 -212 -3z"/>
<path d="M6537 6293 c-18 -18 -5 -93 29 -163 40 -85 116 -195 139 -204 10 -3
26 4 41 19 30 31 29 38 -33 163 -62 126 -147 215 -176 185z"/>
<path d="M6452 6048 c-18 -18 -14 -49 14 -106 27 -55 63 -82 109 -82 36 0 65
17 65 39 0 29 -54 95 -106 129 -52 35 -64 38 -82 20z"/>
<path d="M6012 5309 c-57 -17 -56 -75 2 -103 46 -22 173 -22 204 0 36 25 29
60 -16 83 -46 24 -145 34 -190 20z"/>
<path d="M6143 5079 c-58 -17 -61 -58 -6 -87 45 -25 137 -6 148 29 9 27 -10
47 -54 59 -42 11 -45 11 -88 -1z"/>
<path d="M5426 4808 c-9 -13 -16 -43 -16 -69 0 -87 80 -148 193 -149 72 0 326
27 389 41 87 20 124 71 76 103 -45 29 -432 96 -555 96 -63 0 -74 -3 -87 -22z"/>
<path d="M1678 5179 c-10 -5 -18 -21 -18 -33 0 -35 61 -118 102 -141 32 -17
39 -18 62 -6 27 15 52 59 62 110 5 23 1 35 -19 55 -23 23 -34 26 -99 26 -40 0
-81 -5 -90 -11z"/>
<path d="M6155 799 c-59 -14 -62 -25 -9 -43 60 -20 108 -20 128 0 22 22 20 33
-10 44 -30 12 -55 11 -109 -1z"/>
<path d="M5470 12060 c-12 -22 -7 -50 22 -130 11 -30 31 -102 44 -160 33 -140
32 -138 54 -145 28 -9 60 12 76 50 16 38 9 91 -24 185 -58 166 -139 261 -172
200z"/>
<path d="M8641 11762 c-25 -21 -39 -98 -47 -278 -10 -190 4 -226 51 -135 61
120 96 333 65 391 -18 33 -45 42 -69 22z"/>
<path d="M5905 11323 c-14 -13 -16 -31 -13 -87 3 -57 15 -97 55 -197 62 -151
183 -504 219 -638 25 -94 46 -133 61 -117 5 4 8 85 8 179 0 159 -2 175 -23
212 -12 21 -22 56 -22 76 0 22 -8 47 -21 64 -12 15 -26 46 -30 70 -5 24 -31
93 -58 154 -28 60 -60 145 -72 188 -29 108 -62 138 -104 96z"/>
<path d="M9108 11292 c-38 -42 -61 -98 -56 -134 2 -16 19 -31 50 -49 27 -14
61 -38 77 -53 53 -51 98 -7 108 104 6 65 0 73 -56 74 -32 1 -37 5 -52 46 -9
24 -21 46 -26 47 -6 2 -26 -14 -45 -35z"/>
<path d="M9459 11283 c-37 -32 -119 -195 -144 -288 -8 -33 -18 -107 -22 -165
-5 -95 -4 -107 14 -129 23 -28 44 -24 67 11 8 13 36 91 61 173 26 83 64 191
86 242 40 94 49 149 27 171 -20 20 -54 14 -89 -15z"/>
<path d="M8040 11231 c0 -28 5 -53 10 -56 14 -9 60 21 60 38 0 14 -51 67 -63
67 -4 0 -7 -22 -7 -49z"/>
<path d="M8199 10403 c-11 -30 4 -103 21 -103 14 0 40 55 40 83 0 49 -44 63
-61 20z"/>
<path d="M9047 10253 c-20 -38 -34 -134 -52 -351 -9 -101 -27 -245 -41 -320
-19 -107 -181 -859 -234 -1087 -12 -56 -107 -570 -115 -627 -13 -86 13 -112
58 -58 31 36 50 93 77 224 11 55 54 244 96 420 110 469 223 1017 244 1186 16
136 31 499 23 570 -9 74 -31 92 -56 43z"/>
<path d="M6890 8544 c0 -102 21 -389 45 -624 12 -115 17 -137 35 -152 26 -21
48 -14 58 21 11 39 7 234 -8 336 -27 201 -97 496 -120 510 -6 4 -10 -31 -10
-91z"/>
<path d="M9095 5055 c-67 -24 -98 -82 -56 -105 30 -15 173 -13 196 4 37 27
-10 96 -75 109 -14 3 -43 -1 -65 -8z"/>
<path d="M9318 5049 c-47 -27 6 -65 73 -54 49 8 65 27 44 49 -19 18 -90 21
-117 5z"/>
</g>
</svg>
