<?xml version="1.0" encoding="utf-8"?>
<!-- Generator: Adobe Illustrator 16.0.0, SVG Export Plug-In . SVG Version: 6.00 Build 0)  -->
<!DOCTYPE svg PUBLIC "-//W3C//DTD SVG 1.1//EN" "http://www.w3.org/Graphics/SVG/1.1/DTD/svg11.dtd">
<svg version="1.1" id="Layer_1" xmlns="http://www.w3.org/2000/svg" xmlns:xlink="http://www.w3.org/1999/xlink" x="0px" y="0px"
	 width="512px" height="512px" viewBox="0 0 512 512" enable-background="new 0 0 512 512" xml:space="preserve">
<path d="M441.953,142.352c-4.447-68.872-61.709-123.36-131.705-123.36c-59.481,0-109.766,39.346-126.264,93.429
	c-9.244-3.5-19.259-5.431-29.729-5.431c-42.84,0-78.164,32.08-83.322,73.523c-0.309-0.004-0.614-0.023-0.924-0.023
	c-36.863,0-66.747,29.883-66.747,66.747s29.883,66.746,66.747,66.746c4.386,0,8.669-0.436,12.819-1.243
	c20.151,27.069,52.394,44.604,88.734,44.604c31.229,0,59.429-12.952,79.533-33.772c15.071,15.091,35.901,24.428,58.913,24.428
	c31.43,0,58.783-17.42,72.955-43.127c11.676,5.824,24.844,9.106,38.777,9.106c48.047,0,86.998-38.949,86.998-86.996
	C508.738,185.895,480.252,151.465,441.953,142.352z"/>
<path fill="#020202" d="M357.527,441.834c21.44-24.61,42.25-49.791,63.92-74.19c-8.27,19-18.569,37.16-26.43,56.31
	c9,0.65,18.041-0.17,27.041,0.521c-2.701,5.37-6.761,9.899-10.031,14.91c-15.92,22.2-31.17,44.899-47.5,66.78
	c6.92-20.041,15.711-39.471,22.351-59.59c-10.67-0.881-21.431,0.18-32.11-0.61C355.468,444.453,356.389,443.054,357.527,441.834z"/>
<path fill="#020202" d="M224.034,441.834c21.44-24.61,42.25-49.791,63.92-74.19c-8.27,19-18.569,37.16-26.43,56.31
	c9,0.65,18.041-0.17,27.041,0.521c-2.701,5.37-6.761,9.899-10.031,14.91c-15.92,22.2-31.17,44.899-47.5,66.78
	c6.92-20.041,15.711-39.471,22.351-59.59c-10.67-0.881-21.431,0.18-32.11-0.61C221.975,444.453,222.896,443.054,224.034,441.834z"/>
<path fill="#020202" d="M84.541,441.834c21.44-24.61,42.25-49.791,63.92-74.19c-8.27,19-18.569,37.16-26.43,56.31
	c9,0.65,18.041-0.17,27.041,0.521c-2.701,5.37-6.761,9.899-10.031,14.91c-15.92,22.2-31.17,44.899-47.5,66.78
	c6.92-20.041,15.711-39.471,22.351-59.59c-10.67-0.881-21.431,0.18-32.11-0.61C82.481,444.453,83.402,443.054,84.541,441.834z"/>
</svg>
